<?xml version="1.0" encoding="utf-8"?>
<!-- Generator: Adobe Illustrator 28.1.0, SVG Export Plug-In . SVG Version: 6.00 Build 0)  -->
<svg version="1.1" id="Layer_1" xmlns="http://www.w3.org/2000/svg" xmlns:xlink="http://www.w3.org/1999/xlink" x="0px" y="0px"
	 viewBox="0 0 512 512" style="enable-background:new 0 0 512 512;" xml:space="preserve">
<style type="text/css">
	.st0{fill:#8F5FA8;}
	.st1{fill:#FFFFFF;}
</style>
<circle class="st0" cx="256" cy="256" r="256"/>
<rect x="178.94" y="149.02" transform="matrix(0.7153 -0.6988 0.6988 0.7153 -77.8761 183.9717)" class="st1" width="15.86" height="77.09"/>
<rect x="135.39" y="148.53" transform="matrix(0.6988 0.7153 -0.7153 0.6988 176.9928 -46.1729)" class="st1" width="15.86" height="77.09"/>
<rect x="363.45" y="149.02" transform="matrix(0.7153 -0.6988 0.6988 0.7153 -25.3538 312.9031)" class="st1" width="15.86" height="77.09"/>
<rect x="319.9" y="148.53" transform="matrix(0.6988 0.7153 -0.7153 0.6988 232.5726 -178.1619)" class="st1" width="15.86" height="77.09"/>
<rect x="246.93" y="310.99" transform="matrix(0.6988 0.7153 -0.7153 0.6988 326.8086 -77.0184)" class="st1" width="15.86" height="77.09"/>
<rect x="246.93" y="310.99" transform="matrix(0.7153 -0.6988 0.6988 0.7153 -171.7013 277.5834)" class="st1" width="15.86" height="77.09"/>
</svg>
